<svg id="Layer_1" data-name="Layer 1" xmlns="http://www.w3.org/2000/svg" viewBox="0 0 2535.129 919.095"><defs><style>.cls-1,.cls-2{fill:none;stroke:#fff9dc;stroke-width:6px;}.cls-1{stroke-miterlimit:10;}</style></defs><path class="cls-1" d="M2578.85,200.651V493.187l-107.216,107.2V278.794l-86.206-86.2c30.6-13.5,61.02-43.327,86.206-99.134Z" transform="translate(-70.319 -88.264)"/><polygon class="cls-2" points="2401.314 297.727 2294.117 404.923 2294.117 190.53 2401.314 297.727"/><path class="cls-2" d="M2325.4,93.459h146.234c-25.195,55.8-55.6,85.633-86.2,99.134-52.253,23.05-104.994-1.632-133.165-26l-73.133-73.133Z" transform="translate(-70.319 -88.264)"/><path class="cls-2" d="M2471.633,278.8H2364.438c-10.3,0-30.891,6.291-30.891,31.492a35.934,35.934,0,0,0,5.978,19.391l24.913,43.586V385.99l-43.591-24.908a35.585,35.585,0,0,0-19.391-5.978c-25.2,0-31.487,20.592-31.487,30.886s6.291,30.891,31.487,30.891a35.585,35.585,0,0,0,19.391-5.978l43.591-24.913v12.731l-24.913,43.586a35.849,35.849,0,0,0-5.978,19.392c0,25.2,20.593,31.491,30.891,31.491l-43.591,43.617a160.434,160.434,0,0,0-39.409,63.578H2179.133c28.885,0,75.334-14.383,77.623-71.275v-.37c.056-1.344.082-2.719.082-4.064,0-44.5-28.253-75.7-77.705-75.7-23.625,0-53.115-31.492-53.115-62.983s29.49-62.978,53.115-62.978c53.11,0,77.705-36.638,77.705-75.708,0-25.17-9.036-46.075-25.8-59.489l-22.993,22.994L2071.933,346.925V200.654l107.2-107.195,73.133,73.133c28.171,24.369,80.912,49.051,133.165,26Z" transform="translate(-70.319 -88.264)"/><path class="cls-2" d="M2364.438,493.185v0c-10.3,0-30.891-6.291-30.891-31.491a35.849,35.849,0,0,1,5.978-19.392l24.913-43.586Z" transform="translate(-70.319 -88.264)"/><path class="cls-2" d="M2364.437,493.187v107.2h-83.009a160.662,160.662,0,0,1,39.418-63.585Z" transform="translate(-70.319 -88.264)"/><path class="cls-2" d="M2364.438,278.8v94.469l-24.913-43.586a35.934,35.934,0,0,1-5.978-19.391C2333.547,285.086,2354.14,278.8,2364.438,278.8Z" transform="translate(-70.319 -88.264)"/><path class="cls-2" d="M2364.438,385.99,2320.847,410.9a35.585,35.585,0,0,1-19.391,5.978c-25.2,0-31.487-20.592-31.487-30.891s6.291-30.886,31.487-30.886a35.585,35.585,0,0,1,19.391,5.978Z" transform="translate(-70.319 -88.264)"/><path class="cls-2" d="M2346.337,931.807l-167.2-331.423h102.289C2261.373,659.408,2260.926,760.4,2346.337,931.807Z" transform="translate(-70.319 -88.264)"/><path class="cls-2" d="M2256.838,524.676c0,1.345-.026,2.72-.082,4.064v.37c-2.289,56.892-48.738,71.275-77.623,71.275l-13.7-13.67-93.5-93.525V346.925l136.116-136.116,22.993-22.994c16.76,13.414,25.8,34.319,25.8,59.489,0,39.07-24.6,75.708-77.705,75.708-23.625,0-53.115,31.492-53.115,62.978s29.49,62.983,53.115,62.983C2228.585,448.973,2256.838,480.177,2256.838,524.676Z" transform="translate(-70.319 -88.264)"/><path class="cls-2" d="M2179.139,787.637v52.651h-26.57l18.547-36.77A91.5,91.5,0,0,0,2179.139,787.637Z" transform="translate(-70.319 -88.264)"/><path class="cls-2" d="M2179.139,600.384l-10.16,20.075c-16.41-12.44-46.93-20.075-67.556-20.075Z" transform="translate(-70.319 -88.264)"/><path class="cls-2" d="M2179.139,892.919l-107.2,107.2,8.979-17.856,44.813-88.791c.712-.183,1.465-.346,2.178-.55Z" transform="translate(-70.319 -88.264)"/><path class="cls-2" d="M2015.809,864.435s-79.365-1.751-129.206-51.572l-107.2-107.2-40.985,40.985L1672.21,680.44V600.384l107.2-107.2,73.134,73.134-34.063,34.063,33.086,33.126-15.6,15.575c-7.8,7.778-7.554,23.639.489,31.66,8.042,8.043,24.106,8.043,32.149,0,8.49-8.021,8.49-23.882,0-31.66l-17.042-15.575,35.04-33.126h107.2c-33.127-33.126-35.631-71.852-25.939-107.2h104.081l93.494,93.535,13.7,13.662h-77.716C1965.336,600.384,1929.38,699.029,2015.809,864.435Z" transform="translate(-70.319 -88.264)"/><path class="cls-2" d="M2168.979,620.459l-32.027,63.5c-43.775-24.7-171.7-15.372-92.13,182.652l-6.658,13.153-6.637,13.152c-99.256-26.3-193.87,16.96-173.9,107.2h-78.224c0-162.047,182.509-135.681,236.4-135.681-86.429-165.406-50.473-264.051,85.614-264.051C2122.049,600.384,2152.569,608.019,2168.979,620.459Z" transform="translate(-70.319 -88.264)"/><path class="cls-2" d="M2136.952,683.962l-92.13,182.652C1965.255,668.59,2093.177,659.265,2136.952,683.962Z" transform="translate(-70.319 -88.264)"/><path class="cls-2" d="M2071.933,346.925V493.19h-104.08c15.989-58.175,65.01-107.2,65.01-107.2Z" transform="translate(-70.319 -88.264)"/><path class="cls-2" d="M2031.527,892.919l-54.1,107.2h-119.8C1837.657,909.879,1932.271,866.614,2031.527,892.919Z" transform="translate(-70.319 -88.264)"/><path class="cls-2" d="M1993.8,600.384l-87.672-87.651L1886.6,493.187h81.258C1958.169,528.532,1960.673,567.258,1993.8,600.384Z" transform="translate(-70.319 -88.264)"/><path class="cls-2" d="M1886.6,812.861c49.852,49.826,129.219,51.571,129.219,51.571-53.91,0-236.414-26.371-236.414,135.684l-107.195-107.2V812.861l66.211-66.21,40.984-40.985Zm-82,0L1779.4,787.635l-25.2,25.226,25.2,25.2Z" transform="translate(-70.319 -88.264)"/><polygon class="cls-2" points="1816.283 512.12 1781.243 545.246 1748.158 512.12 1782.221 478.057 1816.283 512.12"/><path class="cls-2" d="M1868.607,649.092c8.5,7.78,8.5,23.625,0,31.661-8.036,8.041-24.108,8.041-32.144,0s-8.3-23.881-.487-31.661l15.584-15.584Z" transform="translate(-70.319 -88.264)"/><path class="cls-2" d="M1823.913,315.585s0,31.334-44.507,31.334V284.25C1823.913,284.25,1823.913,315.585,1823.913,315.585Z" transform="translate(-70.319 -88.264)"/><polygon class="cls-2" points="1709.083 699.371 1734.278 724.597 1709.083 749.797 1683.883 724.597 1709.083 699.371"/><rect class="cls-1" x="1601.891" y="195.987" width="107.196" height="62.669"/><polygon class="cls-2" points="1709.087 404.923 1601.891 512.12 1601.891 342.234 1646.377 342.234 1709.087 404.923"/><polygon class="cls-2" points="1709.087 112.387 1494.694 112.387 1387.497 5.191 1601.891 5.191 1709.087 112.387"/><polygon class="cls-2" points="1668.098 658.387 1601.888 724.597 1601.888 592.176 1668.098 658.387"/><polygon class="cls-2" points="1494.689 512.122 1494.689 726.512 1387.489 726.512 1387.489 642.942 1309.348 642.942 1309.348 595.692 1455.619 595.692 1455.619 512.122 1494.689 512.122"/><path class="cls-2" d="M1408.728,430.5c-48.05,48.07-79.93,62.69-136.25,62.69l107.19,107.2h185.35V346.916C1492.328,346.916,1457.818,381.446,1408.728,430.5Zm72.71,125.38-62.69-62.69,62.69-62.69,62.67,62.69Z" transform="translate(-70.319 -88.264)"/><path class="cls-2" d="M1457.817,93.455c18.385,46.055,32.311,138.124-59.005,138.124,31.742,0,62.405-70.04-19.138-138.124l-107.2,107.2c19.993,0,81.766,65.866,81.766,146.268,0,88.119-58.149,146.268-81.766,146.268,56.316,0,88.2-14.619,136.25-62.689,49.089-49.048,83.6-83.579,156.285-83.579V200.651Zm-104.855,97.057c0-17.306,10.831-25.328,17.591-27.67,13.783-4.764,30.54,5.559,21.378,16.37-18.772,22.132-9.081,50.941,5.762,52.305C1370.471,229.97,1352.962,207.574,1352.962,190.512Z" transform="translate(-70.319 -88.264)"/><polygon class="cls-2" points="1411.118 342.231 1473.782 404.926 1411.118 467.616 1348.422 404.926 1411.118 342.231"/><path class="cls-2" d="M1457.812,93.459c18.391,46.049,32.318,138.117-59.006,138.117,31.748,0,62.408-70.044-19.135-138.117Z" transform="translate(-70.319 -88.264)"/><path class="cls-2" d="M1370.548,162.846c13.788-4.777,30.547,5.547,21.392,16.359-18.791,22.137-9.092,50.939,5.753,52.315-27.227-1.545-44.736-23.944-44.736-41.016C1352.957,173.2,1363.8,165.191,1370.548,162.846Z" transform="translate(-70.319 -88.264)"/><path class="cls-2" d="M1379.668,600.386h-107.19v187.25l-113.55-18.16,40.71-107.94-73.43,89.78-73.42-89.81-5.45-.08.01-.01a90.958,90.958,0,0,0,7.43-6.58c.59-.57,1.17-1.16,1.75-1.76,15.5-16.12,25.17-38.03,25.17-64.5,0-59.03-47.23-95.39-101.76-95.39h72.69l107.2,107.2h73.58v-107.2h39.07Z" transform="translate(-70.319 -88.264)"/><path class="cls-1" d="M1354.244,346.919c0,88.119-58.149,146.268-81.766,146.268h-39.072V200.651h39.072C1292.471,200.651,1354.244,266.517,1354.244,346.919Z" transform="translate(-70.319 -88.264)"/><path class="cls-2" d="M1272.478,787.636v212.48H979.948l-107.2-107.2V787.636c0,.81.01,1.61.02,2.41,0,.89.02,1.78.04,2.67.02.85.04,1.69.07,2.53.01.52.03,1.05.06,1.57.02.66.05,1.32.08,1.98.03.68.07,1.35.11,2.02.04.84.1,1.67.15,2.49.01.16.02.33.04.49q.075,1.155.18,2.31a2.458,2.458,0,0,0,.02.28c.06.67.11,1.33.18,2,.14,1.57.3,3.12.49,4.65.08.75.17,1.49.26,2.22.01.06.02.12.03.19.09.73.19,1.46.29,2.18.09.7.19,1.39.3,2.08.25,1.66.52,3.31.81,4.94l.33,1.8c.3,1.63.62,3.24.97,4.83q.15.75.33,1.5c.13.62.27,1.24.42,1.85s.29,1.21.44,1.81c.23,1,.49,1.98.75,2.96.17.67.35,1.34.54,2,.16.62.34,1.23.52,1.83s.35,1.22.53,1.82.36,1.21.55,1.81l.45,1.41c.3.95.62,1.89.94,2.82.17.5.34.99.51,1.48.2.56.4,1.12.6,1.67.19.52.38,1.03.58,1.54.23.64.47,1.27.72,1.9s.5,1.28.76,1.92c.33.81.66,1.61,1,2.4.29.68.58,1.35.87,2.02.03.07.06.13.09.2.3.68.6,1.35.91,2.01.32.7.64,1.39.97,2.08s.66,1.37,1,2.05c.29.61.6,1.21.9,1.8.08.15.15.31.24.46.27.54.55,1.08.84,1.61q.645,1.23,1.32,2.43c.31.56.62,1.12.94,1.68.37.65.74,1.29,1.12,1.93.31.53.63,1.06.94,1.58.3.49.59.97.89,1.45.35.55.69,1.1,1.05,1.65.66,1.05,1.35,2.09,2.04,3.11.34.51.69,1.02,1.04,1.52q2.49,3.615,5.18,7.03c.38.49.76.97,1.14,1.45.8,1,1.61,1.98,2.42,2.94.46.54.92,1.08,1.38,1.61.41.47.81.93,1.23,1.39q.375.435.78.87c.48.53.96,1.06,1.45,1.58s.97,1.05,1.47,1.56q4.92,5.16,10.26,9.79c.54.47,1.08.94,1.62,1.39.46.4.92.79,1.39,1.17.93.77,1.86,1.53,2.8,2.26.44.36.88.71,1.33,1.05q3.93,3.06,8.05,5.85c.59.41,1.18.8,1.77,1.19s1.18.79,1.78,1.17,1.19.77,1.8,1.15,1.2.75,1.81,1.12,1.21.74,1.82,1.1,1.22.73,1.84,1.08,1.24.72,1.86,1.06q2.79,1.575,5.64,3.04c.63.33,1.26.66,1.9.97a188.779,188.779,0,0,0,17.65,7.76c.67.26,1.34.52,2.01.76,1.31.49,2.63.96,3.95,1.41.72.25,1.43.49,2.14.73.68.23,1.37.46,2.05.67.69.23,1.37.45,2.06.65.69.22,1.37.43,2.06.63s1.38.42,2.07.61c.8.23,1.6.46,2.4.68,1.28.36,2.57.7,3.86,1.02.7.19,1.4.36,2.1.53.09.02.18.04.28.07,1.29.32,2.58.62,3.88.91.73.16,1.45.32,2.17.47s1.41.31,2.11.45c.72.14,1.43.28,2.14.42,1.42.28,2.84.55,4.26.79.72.12,1.43.24,2.14.36,1.43.24,2.87.47,4.3.67,2.87.42,5.74.79,8.62,1.09,3.6.4,7.21.7,10.82.92a243.314,243.314,0,0,0,27.8.15,240.254,240.254,0,0,0,29.79-3.38q7.32-1.29,14.44-3.03c.79-.2,1.58-.39,2.37-.59,3.14-.8,6.26-1.67,9.33-2.6.77-.24,1.54-.47,2.3-.71q2.295-.72,4.55-1.49c.76-.26,1.51-.52,2.26-.78,1.49-.53,2.98-1.07,4.45-1.63q3.315-1.26,6.56-2.62c1.44-.6,2.86-1.22,4.28-1.86q4.23-1.9,8.32-3.99,2.04-1.035,4.03-2.13a145.67,145.67,0,0,0,33.41-24.57C1272.478,840.946,1272.478,787.636,1272.478,787.636Z" transform="translate(-70.319 -88.264)"/><path class="cls-1" d="M1158.929,805.826l113.547-18.191s0,53.315-72.819,126.135Z" transform="translate(-70.319 -88.264)"/><path class="cls-2" d="M1272.476,787.635l-113.547,18.191,40.728,107.944-73.446-89.779-73.42,89.779,37.982-100.709a2.7,2.7,0,0,0,.2-.457c.887-2.2,1.713-4.459,2.545-6.778L979.945,787.635l113.574-18.16-40.728-107.97,73.42,89.81,73.446-89.81-40.728,107.97Z" transform="translate(-70.319 -88.264)"/><path class="cls-2" d="M1126.211,823.991l73.446,89.779c-86.346,86.346-326.912,69.756-326.912-126.135,0,76.2,72.676,103.68,107.2,103.68,33.375,0,83.883-10.525,110.828-78.254L1052.791,913.77Z" transform="translate(-70.319 -88.264)"/><path class="cls-2" d="M1052.791,661.505l40.728,107.97-113.574,18.16,113.574,18.191-2.545,6.778a2.7,2.7,0,0,1-.2.457c-26.945,67.729-77.453,78.254-110.828,78.254-34.524,0-107.2-27.484-107.2-103.68,0-65.092,53.6-103.675,107.2-103.675,25.108,0,49.077-7.979,67.381-22.542Z" transform="translate(-70.319 -88.264)"/><path class="cls-2" d="M1081.7,588.575c0,31.375-13.58,56.336-34.368,72.849-18.3,14.557-42.288,22.538-67.392,22.538-53.609,0-107.2,38.583-107.2,103.675V600.384h107.2v-107.2C1034.466,493.187,1081.7,529.55,1081.7,588.575Z" transform="translate(-70.319 -88.264)"/><polygon class="cls-2" points="982.308 404.923 909.622 404.923 909.622 332.257 982.308 404.923"/><path class="cls-2" d="M979.942,200.651v107.2l-107.2-107.2c-107.2-107.2-107.2-107.2-146.267-107.2H872.745Z" transform="translate(-70.319 -88.264)"/><polygon class="cls-2" points="802.426 512.12 802.426 804.655 593.489 595.698 656.158 595.698 656.158 512.12 802.426 512.12"/><path class="cls-2" d="M819.157,385.991c-53.608,53.608-24.513,133.99,53.588,133.99v80.4H726.478V532.258l-68.126,68.126h-78.1L726.478,454.116c58.514-58.475,53.608-107.2,26.793-133.991L872.745,200.651V332.4Z" transform="translate(-70.319 -88.264)"/><path class="cls-2" d="M872.745,332.4V519.981c-78.1,0-107.2-80.382-53.588-133.99Z" transform="translate(-70.319 -88.264)"/><path class="cls-2" d="M753.271,320.125c26.815,26.794,31.721,75.516-26.793,133.991L580.25,600.384c0-107.2,0-107.2,25.43-132.627l120.8-120.838c-24.881-24.88-40.151-40.171-57.763-49.414C648.4,286.857,625,284.25,580.25,284.25h-107.2v-83.6h107.2c53.589,0,53.589,0,119.433,65.866l65.866-65.866h107.2Z" transform="translate(-70.319 -88.264)"/><path class="cls-2" d="M872.745,200.654H765.55l-65.866,65.872c-65.841-65.872-65.841-65.872-119.439-65.872h-107.2l107.2-107.195H726.48C765.55,93.459,765.55,93.459,872.745,200.654Z" transform="translate(-70.319 -88.264)"/><polygon class="cls-1" points="656.158 443.994 656.158 512.12 588.032 512.12 656.158 443.994"/><path class="cls-2" d="M726.48,346.925,605.671,467.764c-25.426,25.426-25.426,25.426-25.426,132.621L473.045,493.19V284.26h107.2c44.762,0,68.156,2.6,88.461,13.239C686.327,306.741,701.6,322.037,726.48,346.925Z" transform="translate(-70.319 -88.264)"/><polygon class="cls-2" points="509.931 512.12 402.734 512.12 349.106 565.728 295.497 512.12 295.497 404.923 402.734 404.923 509.931 512.12"/><path class="cls-2" d="M473.053,704.872l-96.771,96.752,96.771,96.732v101.76L325.4,852.484c-40.435,40.435-71.3,71.322-144.883,71.322-65.418,0-107.2-49.048-107.2-123.566,0-65.4,65.417-95.368,107.2-95.368,50.839,0,92.659,53.588,92.659,95.368-8.49-18.162-34.9-54.5-72.665-54.5-18.2.774-54.525,12.725-54.525,54.505,0,34.531,30.886,52.244,54.525,52.244,20.421,0,39.234-18.793,72.665-52.244l95.388-95.368L264.076,600.384h101.74l53.609,53.608,53.628-53.608Z" transform="translate(-70.319 -88.264)"/><polygon class="cls-2" points="402.734 616.608 402.734 810.092 305.962 713.36 402.734 616.608"/><rect class="cls-2" x="295.497" y="195.987" width="107.237" height="208.937"/><path class="cls-1" d="M325.41,852.475l147.635,147.641H180.514L73.319,892.916V800.248c0,74.508,41.785,123.559,107.2,123.559C254.1,923.807,284.964,892.916,325.41,852.475Z" transform="translate(-70.319 -88.264)"/><path class="cls-2" d="M368.565,704.872,273.177,800.24c0-41.78-41.82-95.368-92.659-95.368-41.779,0-107.2,29.971-107.2,95.368V600.384l107.2-107.2h83.558v107.2H180.518c-21.643,0-29.238,28.2-22.05,43.448,9.61,20.4,35.081,27.08,48.7,13.479l56.906-56.927Z" transform="translate(-70.319 -88.264)"/><path class="cls-2" d="M264.076,284.25V493.187H180.518C247.727,413.253,264.076,338.755,264.076,284.25Z" transform="translate(-70.319 -88.264)"/><path class="cls-2" d="M264.084,600.385,207.172,657.3c-13.614,13.613-39.1,6.922-48.707-13.47-7.179-15.246.4-43.448,22.049-43.448Z" transform="translate(-70.319 -88.264)"/><path class="cls-2" d="M200.506,745.737c37.783,0,64.184,36.351,72.676,54.511-33.436,33.436-52.253,52.227-72.676,52.227-23.625,0-54.511-17.7-54.511-52.227C146,758.463,182.316,746.507,200.506,745.737Z" transform="translate(-70.319 -88.264)"/><polygon class="cls-2" points="2532.129 512.12 2532.129 595.698 2294.117 595.698 2294.117 404.923 2401.314 297.727 2401.314 512.12 2532.129 512.12"/><polygon class="cls-2" points="2401.314 190.531 2401.314 297.726 2294.119 190.531 2401.314 190.531"/><path class="cls-2" d="M2349.106,937.305c-.937-1.833-1.853-3.686-2.769-5.5l-167.2-331.423-10.16,20.075-32.027,63.5-92.13,182.652-6.658,13.153-6.637,13.152-54.1,107.2h94.512l8.979-17.856,44.813-88.791.285-.55h106.219l54.1,107.2h94.471Zm-196.537-97.017,18.547-36.77,8.023-15.881,26.529,52.651Z" transform="translate(-70.319 -88.264)"/><path class="cls-2" d="M1906.128,512.733,1886.6,493.187l-66.212-66.211c83.945-15.5,109.131-78,110.719-111.391-1.812-38.3-34.694-114.934-151.7-114.934H1565.013V600.384h107.2V430.5H1716.7l62.709,62.689,73.134,73.134,34.063,34.063h107.2ZM1672.21,346.919V284.25h107.2c44.507,0,44.507,31.335,44.507,31.335s0,31.334-44.507,31.334Z" transform="translate(-70.319 -88.264)"/><polygon class="cls-2" points="1309.348 595.692 1309.348 642.942 1387.489 642.942 1387.489 726.512 1309.348 726.512 1309.348 804.652 1455.619 804.652 1455.619 911.852 1202.159 911.852 1202.159 512.122 1455.619 512.122 1455.619 595.692 1309.348 595.692"/><polygon class="cls-2" points="1163.087 112.387 1163.087 512.12 1089.505 512.12 982.308 404.923 909.622 332.257 909.622 512.12 802.426 512.12 802.426 112.387 909.622 219.584 1002.302 312.264 1055.89 365.852 1055.89 112.387 1163.087 112.387"/><polygon class="cls-2" points="509.931 595.698 509.931 642.934 588.032 642.934 588.032 726.513 509.931 726.513 509.931 804.655 656.158 804.655 656.158 911.852 402.734 911.852 402.734 512.12 656.158 512.12 656.158 595.698 509.931 595.698"/><polygon class="cls-2" points="402.734 112.387 402.734 195.987 295.497 195.987 295.497 512.12 193.757 512.12 193.757 195.987 86.56 195.987 86.56 112.387 402.734 112.387"/></svg>