<svg id="Layer_1" data-name="Layer 1" xmlns="http://www.w3.org/2000/svg" viewBox="0 0 2539.12853 916.66126"><defs><style>.cls-1{fill:none;stroke:#fff9dc;stroke-linejoin:round;stroke-width:10px;}</style></defs><path class="cls-1" d="M2578.85028,200.65141V493.18707L2471.63353,600.38369V278.794l-86.20537-86.20524c30.60148-13.49884,61.01953-43.32649,86.20537-99.13393Z" transform="translate(-68.31943 -88.45478)"/><polygon class="cls-1" points="2403.314 297.536 2296.117 404.732 2296.117 190.339 2403.314 297.536"/><path class="cls-1" d="M2325.39863,93.45919h146.23465c-25.19518,55.79885-55.59872,85.63281-86.2024,99.13352-52.253,23.05025-104.99358-1.63178-133.165-26.0008L2179.1332,93.45919Z" transform="translate(-68.31943 -88.45478)"/><path class="cls-1" d="M2471.63328,278.7951h-107.195c-10.29872,0-30.891,6.2911-30.891,31.49141a35.93339,35.93339,0,0,0,5.97808,19.39156l24.91295,43.58611v12.72588l-43.59125-24.90782a35.58635,35.58635,0,0,0-19.39156-5.97808c-25.19518,0-31.48627,20.59231-31.48627,30.8859,0,10.29872,6.29109,30.891,31.48627,30.891a35.58638,35.58638,0,0,0,19.39156-5.97809l43.59125-24.91294v12.731l-24.91295,43.58611a35.84751,35.84751,0,0,0-5.97808,19.39156c0,25.20031,20.59231,31.49141,30.891,31.49141l-43.59125,43.6169a160.43511,160.43511,0,0,0-39.40915,63.578H2179.1332c28.88465,0,75.33409-14.38332,77.62269-71.27515v-.36946c.05645-1.34443.0821-2.71964.0821-4.06407,0-44.4995-28.25349-75.70355-77.70479-75.70355-23.625,0-53.11512-31.4914-53.11512-62.9828,0-31.48628,29.49015-62.97768,53.11512-62.97768,53.11,0,77.70479-36.6382,77.70479-75.70868,0-25.16952-9.03639-46.07484-25.79555-59.48832l-22.9938,22.9938L2071.93312,346.92471V200.65414L2179.1332,93.45919l73.13272,73.13272c28.17138,24.369,80.91192,49.051,133.165,26.0008Z" transform="translate(-68.31943 -88.45478)"/><path class="cls-1" d="M2364.43833,493.185v.00513c-10.29872,0-30.891-6.2911-30.891-31.49141a35.84751,35.84751,0,0,1,5.97808-19.39156l24.91295-43.58611Z" transform="translate(-68.31943 -88.45478)"/><path class="cls-1" d="M2364.43665,493.18707V600.38369H2281.428a160.67351,160.67351,0,0,1,39.41761-63.58506Z" transform="translate(-68.31943 -88.45478)"/><path class="cls-1" d="M2364.43833,278.7951v94.46908l-24.91295-43.58611a35.93339,35.93339,0,0,1-5.97808-19.39156C2333.5473,285.0862,2354.13961,278.7951,2364.43833,278.7951Z" transform="translate(-68.31943 -88.45478)"/><path class="cls-1" d="M2364.43833,385.99006,2320.84708,410.903a35.58638,35.58638,0,0,1-19.39156,5.97809c-25.19518,0-31.48627-20.59231-31.48627-30.891,0-10.29359,6.29109-30.8859,31.48627-30.8859a35.58635,35.58635,0,0,1,19.39156,5.97808Z" transform="translate(-68.31943 -88.45478)"/><path class="cls-1" d="M2346.33663,931.80734,2179.13874,600.38369H2281.428C2261.37346,659.408,2260.9256,760.39462,2346.33663,931.80734Z" transform="translate(-68.31943 -88.45478)"/><path class="cls-1" d="M2256.838,524.67641c0,1.34443-.02565,2.71964-.0821,4.06407v.36946c-2.2886,56.89183-48.738,71.27515-77.62269,71.27515l-13.70084-13.67-93.49924-93.5249V346.92471l136.11552-136.11553,22.9938-22.9938c16.75916,13.41348,25.79555,34.3188,25.79555,59.48832,0,39.07048-24.5948,75.70868-77.70479,75.70868-23.625,0-53.11512,31.4914-53.11512,62.97768,0,31.4914,29.49015,62.9828,53.11512,62.9828C2228.5845,448.97286,2256.838,480.17691,2256.838,524.67641Z" transform="translate(-68.31943 -88.45478)"/><path class="cls-1" d="M2179.13874,787.6366v52.65151h-26.57019l18.54789-36.77056A91.521,91.521,0,0,0,2179.13874,787.6366Z" transform="translate(-68.31943 -88.45478)"/><path class="cls-1" d="M2179.13874,600.38369l-10.16023,20.07515c-16.41-12.44006-46.92991-20.07515-67.55508-20.07515Z" transform="translate(-68.31943 -88.45478)"/><path class="cls-1" d="M2179.13874,892.91936l-107.19687,107.1965,8.97868-17.85583,44.81337-88.7909c.71231-.1833,1.46538-.34622,2.17818-.54977Z" transform="translate(-68.31943 -88.45478)"/><path class="cls-1" d="M2015.8086,864.43543s-79.36411-1.75107-129.2059-51.57248L1779.40633,705.66633l-40.98539,40.98514-66.211-66.21136V600.38369l107.19638-107.19662,73.13376,73.13389-34.06261,34.06273,33.08536,33.126-15.59575,15.57562c-7.79813,7.77762-7.55406,23.63819.48862,31.66012,8.04219,8.04232,24.10619,8.04232,32.14887,0,8.49006-8.02193,8.49006-23.8825,0-31.66012l-17.04174-15.57562,35.03986-33.126h107.19687c-33.12612-33.12612-35.63039-71.8513-25.9389-107.19662h104.0812l93.49448,93.53487,13.70239,13.66175h-77.71531C1965.33553,600.38369,1929.37955,699.029,2015.8086,864.43543Z" transform="translate(-68.31943 -88.45478)"/><path class="cls-1" d="M2168.97851,620.45884l-32.02659,63.50354c-43.77448-24.697-171.69742-15.37194-92.13,182.65161l-6.65784,13.15262-6.637,13.15275c-99.25609-26.30537-193.87048,16.9601-173.897,107.1965h-78.22382c0-162.04694,182.50882-135.68043,236.40227-135.68043-86.429-165.40643-50.47307-264.05174,85.61483-264.05174C2122.0486,600.38369,2152.56855,608.01878,2168.97851,620.45884Z" transform="translate(-68.31943 -88.45478)"/><path class="cls-1" d="M2136.95192,683.96238l-92.13,182.65161C1965.2545,668.59044,2093.17744,659.26542,2136.95192,683.96238Z" transform="translate(-68.31943 -88.45478)"/><path class="cls-1" d="M2071.93312,346.92471V493.19014H1967.85293c15.98944-58.17469,65.00971-107.20008,65.00971-107.20008Z" transform="translate(-68.31943 -88.45478)"/><path class="cls-1" d="M2031.52713,892.91936l-54.09725,107.1965H1857.63015C1837.65665,909.87946,1932.271,866.614,2031.52713,892.91936Z" transform="translate(-68.31943 -88.45478)"/><path class="cls-1" d="M1993.79957,600.38369,1906.12834,512.733l-19.52564-19.54589h81.258C1958.16918,528.53239,1960.67345,567.25757,1993.79957,600.38369Z" transform="translate(-68.31943 -88.45478)"/><path class="cls-1" d="M1886.5972,812.861c49.85156,49.8259,129.21892,51.57057,129.21892,51.57057-53.91049,0-236.41387-26.37026-236.41387,135.68449L1672.2073,892.916V812.861l66.21046-66.21046,40.98449-40.98449Zm-81.99977,0-25.19518-25.226-25.2003,25.226,25.2003,25.20031Z" transform="translate(-68.31943 -88.45478)"/><polygon class="cls-1" points="1818.283 511.929 1783.243 545.055 1750.158 511.929 1784.221 477.866 1818.283 511.929"/><path class="cls-1" d="M1868.60651,649.09234c8.4976,7.7792,8.4976,23.625,0,31.66074-8.03577,8.0409-24.10731,8.0409-32.14309,0-8.0409-8.03577-8.29747-23.88154-.48748-31.66074L1851.56,633.50828Z" transform="translate(-68.31943 -88.45478)"/><path class="cls-1" d="M1823.9135,315.58489s0,31.33441-44.50717,31.33441V284.25048C1823.9135,284.25048,1823.9135,315.58489,1823.9135,315.58489Z" transform="translate(-68.31943 -88.45478)"/><polygon class="cls-1" points="1711.083 699.18 1736.278 724.406 1711.083 749.607 1685.883 724.406 1711.083 699.18"/><rect class="cls-1" x="1603.89053" y="195.79569" width="107.19637" height="62.66883"/><polygon class="cls-1" points="1711.087 404.732 1603.891 511.929 1603.891 342.043 1648.377 342.043 1711.087 404.732"/><polygon class="cls-1" points="1711.087 112.197 1496.694 112.197 1389.497 5 1603.891 5 1711.087 112.197"/><polygon class="cls-1" points="1670.098 658.196 1603.888 724.406 1603.888 591.985 1670.098 658.196"/><polygon class="cls-1" points="1496.689 511.931 1496.689 726.321 1389.489 726.321 1389.489 642.751 1311.348 642.751 1311.348 595.501 1457.619 595.501 1457.619 511.931 1496.689 511.931"/><path class="cls-1" d="M1408.728,430.496c-48.05005,48.07-79.93018,62.69-136.25,62.69l107.18994,107.2H1565.018V346.916C1492.32784,346.916,1457.81783,381.446,1408.728,430.496Zm72.71,125.38-62.68994-62.69,62.68994-62.69,62.66992,62.69Z" transform="translate(-68.31943 -88.45478)"/><path class="cls-1" d="M1457.81671,93.45478c18.38534,46.05494,32.31141,138.12381-59.00438,138.12381,31.74176,0,62.40438-70.03922-19.13842-138.12381L1272.47754,200.65141c19.99338,0,81.76648,65.86527,81.76648,146.26789,0,88.119-58.14892,146.26777-81.76648,146.26777,56.3162,0,88.20013-14.61862,136.25045-62.68908,49.08872-49.04783,83.5992-83.57869,156.28509-83.57869V200.65141ZM1352.96156,190.512c0-17.30619,10.83128-25.32812,17.591-27.66959,13.78392-4.76423,30.54034,5.5583,21.37824,16.36969-18.77207,22.13156-9.08058,50.9412,5.7621,52.3053C1370.47105,229.97018,1352.96156,207.57393,1352.96156,190.512Z" transform="translate(-68.31943 -88.45478)"/><polygon class="cls-1" points="1413.118 342.04 1475.782 404.735 1413.118 467.426 1350.422 404.735 1413.118 342.04"/><path class="cls-1" d="M1457.81227,93.45919c18.39094,46.04919,32.31756,138.11677-59.006,138.11677,31.748,0,62.40809-70.04361-19.135-138.11677Z" transform="translate(-68.31943 -88.45478)"/><path class="cls-1" d="M1370.54767,162.846c13.78808-4.77733,30.54723,5.54705,21.39281,16.35891-18.79119,22.13686-9.09284,50.93941,5.7523,52.31462-27.22721-1.54455-44.73555-23.94311-44.73555-41.01528C1352.95723,173.20115,1363.79988,165.191,1370.54767,162.846Z" transform="translate(-68.31943 -88.45478)"/><path class="cls-1" d="M1379.66793,600.386H1272.478v187.25l-113.55005-18.16,40.71-107.94-73.42993,89.78-73.41993-89.81-5.45019-.08.01-.01a90.91329,90.91329,0,0,0,7.42993-6.58c.59009-.57,1.17017-1.16,1.75-1.76,15.5-16.12,25.17017-38.03,25.17017-64.5,0-59.03-47.23-95.39-101.76-95.39h72.68994l107.19995,107.2h73.58008v-107.2H1272.478Z" transform="translate(-68.31943 -88.45478)"/><path class="cls-1" d="M1354.244,346.9193c0,88.119-58.14892,146.26777-81.76648,146.26777h-39.07115V200.65141h39.07115C1292.47092,200.65141,1354.244,266.51668,1354.244,346.9193Z" transform="translate(-68.31943 -88.45478)"/><path class="cls-1" d="M1272.478,787.636v212.48H979.948L872.748,892.916V787.636c0,.81.01,1.61.01989,2.41,0,.89.02,1.78.04,2.67.0199.85.03992,1.69.06995,2.53.01.52.03,1.05.06006,1.57.02.66.05005,1.32.08,1.98.03.68.06995,1.35.11,2.02.04.84.1001,1.67.15,2.49.01.16.02.33.04.49q.0749,1.15494.18006,2.31a2.4861,2.4861,0,0,0,.01989.28c.05994.67.11,1.33.18006,2,.13989,1.57.30005,3.12.49,4.65.08.75.16992,1.49.26,2.22.01.06.02.12.03.19.09.73.18994,1.46.28991,2.18.09.7.19007,1.39.3,2.08.25,1.66.5199,3.31.80994,4.94q.16517.9.33008,1.8c.3,1.63.61987,3.24.97,4.83q.15.75.33008,1.5c.12988.62.26989,1.24.41992,1.85.14.61005.29,1.21.43994,1.81.23,1,.49,1.98.75,2.96.17.67.3501,1.34.54,2,.16.62.34009,1.23.52,1.83.16992.61.35,1.22.53,1.82.17993.61.36,1.21.55,1.81q.22485.705.45,1.41c.3.95.61987,1.89.93994,2.82.17.5.34009.99.51,1.48.2.56.4,1.12.6001,1.67.18994.52.37988,1.03.57983,1.54.2301.64.47009,1.27.72009,1.9.25.63995.5,1.28.76,1.92.33.81.66,1.61,1,2.4.28992.68005.58,1.35.87,2.02.03.07.06006.13.09.2.29993.68.6,1.35.91,2.01.32007.7.63989,1.38995.97,2.08s.66,1.37006,1,2.05c.29.61.6001,1.21.9,1.8.08.15.15.31.24.46.27.54.54993,1.08.84,1.61005q.64508,1.23,1.32007,2.43c.30993.56.61987,1.12.93994,1.68.37.65.74,1.29,1.12,1.93.30994.53.63,1.06.94007,1.58.3.49.59.97.88989,1.45.3501.55.69006,1.1,1.05005,1.65.66,1.05,1.3501,2.09,2.04,3.11.34.51.68994,1.02,1.04,1.52q2.48986,3.61506,5.17993,7.03c.38.49.76.97,1.14,1.45.79993,1,1.61,1.98,2.42005,2.94.46.54.91992,1.08,1.37988,1.61.41016.47.81006.93,1.23,1.39q.375.435.78.87c.48.53.96008,1.06006,1.45007,1.58q.72.795,1.47,1.56,4.92,5.16,10.26,9.79c.53992.47,1.08.94,1.62,1.39.46.4.91992.79,1.39,1.17.93006.77,1.86,1.53,2.79993,2.26.44006.36005.88013.71,1.33008,1.05005q3.93,3.06,8.05,5.85c.59.41,1.17993.8,1.77,1.19.58984.4,1.17993.79,1.7799,1.17.6.39,1.19007.77,1.79993,1.15.6001.38,1.20007.75,1.81006,1.12.61011.38,1.21.74,1.82007,1.1.61.37,1.22.73,1.84,1.08.62.36,1.24.72,1.86,1.06q2.79,1.575,5.64,3.04c.63.33,1.26.66,1.9.97a188.783,188.783,0,0,0,17.6499,7.76c.67.26,1.34009.52,2.01.76,1.31006.49,2.63013.96,3.95007,1.41.71985.25,1.43006.49,2.14.73.67993.23,1.36987.46,2.05005.67.68994.23,1.36987.45,2.06.65.69.22,1.36988.43,2.05982.63.67993.21,1.38013.42,2.07007.61.80005.23,1.60009.46,2.3999.68005,1.28.36,2.57007.7,3.86011,1.02.7.19,1.3999.36005,2.09985.53.09009.02.18018.04.28.07,1.29.32,2.58008.62,3.88013.91.73.16,1.44995.32,2.16992.47.71.16,1.41015.31,2.11011.45.72.14,1.42993.28,2.13989.42,1.41992.28,2.84009.55,4.26.79.72.12,1.42993.24,2.13989.36,1.43018.24,2.87012.47,4.3.67,2.87012.42,5.74.79,8.62012,1.09,3.59985.4,7.21.7,10.82007.92a243.31281,243.31281,0,0,0,27.7998.15,240.25715,240.25715,0,0,0,29.79-3.38q7.3202-1.29,14.43994-3.03c.79-.2,1.58008-.39,2.37012-.59,3.14013-.8,6.26-1.67,9.33008-2.6.77-.24,1.54-.47,2.2998-.71q2.295-.72,4.55005-1.49c.76-.26,1.51-.52,2.26-.78,1.49-.53,2.98-1.07,4.45019-1.63q3.315-1.26,6.55982-2.62c1.44018-.6,2.86011-1.22,4.28-1.86q4.2301-1.905,8.32007-3.99,2.03979-1.035,4.03-2.13a145.66994,145.66994,0,0,0,33.40991-24.57C1272.478,840.946,1272.478,787.636,1272.478,787.636Z" transform="translate(-68.31943 -88.45478)"/><path class="cls-1" d="M1158.92873,805.82583,1272.47635,787.635s0,53.31524-72.8197,126.13495Z" transform="translate(-68.31943 -88.45478)"/><path class="cls-1" d="M1272.47635,787.635l-113.54762,18.19081L1199.65665,913.77l-73.44573-89.779-73.42007,89.779,37.98262-100.70887a2.74357,2.74357,0,0,0,.20012-.45669c.88774-2.20137,1.71389-4.45919,2.54518-6.77858L979.94549,787.635l113.57328-18.16L1052.79085,661.5052l73.42007,89.80976,73.44573-89.80976L1158.92873,769.475Z" transform="translate(-68.31943 -88.45478)"/><path class="cls-1" d="M1126.21092,823.991l73.44573,89.779C1113.31058,1000.116,872.7454,983.52622,872.7454,787.635c0,76.19616,72.676,103.67994,107.20009,103.67994,33.37462,0,83.883-10.5245,110.828-78.25386L1052.79085,913.77Z" transform="translate(-68.31943 -88.45478)"/><path class="cls-1" d="M1052.79085,661.5052,1093.51877,769.475l-113.57328,18.16,113.57328,18.19081-2.54518,6.77858a2.74357,2.74357,0,0,1-.20012.45669c-26.945,67.72936-77.45336,78.25386-110.828,78.25386-34.52406,0-107.20009-27.48378-107.20009-103.67994,0-65.09182,53.59748-103.67481,107.20009-103.67481,25.10794,0,49.07671-7.97933,67.38041-22.54225Z" transform="translate(-68.31943 -88.45478)"/><path class="cls-1" d="M1081.70185,588.57479c0,31.375-13.5801,56.3367-34.36781,72.84881-18.30382,14.55761-42.28823,22.53878-67.39254,22.53878-53.60813,0-107.19637,38.58265-107.19637,103.67422V600.38369H979.9415V493.18707C1034.46624,493.18707,1081.70185,529.5504,1081.70185,588.57479Z" transform="translate(-68.31943 -88.45478)"/><polygon class="cls-1" points="984.308 404.732 911.622 404.732 911.622 332.067 984.308 404.732"/><path class="cls-1" d="M979.9415,200.65141V307.848L872.74513,200.65141C765.54875,93.45478,765.54875,93.45478,726.4776,93.45478H872.74513Z" transform="translate(-68.31943 -88.45478)"/><polygon class="cls-1" points="804.426 511.929 804.426 804.465 595.489 595.508 658.158 595.508 658.158 511.929 804.426 511.929"/><path class="cls-1" d="M819.15688,385.99057c-53.60813,53.60838-24.51329,133.99062,53.58825,133.99062v80.4025H726.4776V532.25834l-68.12572,68.12535H580.25034L726.4776,454.1158c58.51477-58.4745,53.60813-107.1965,26.79388-133.99062L872.74513,200.65141v131.751Z" transform="translate(-68.31943 -88.45478)"/><path class="cls-1" d="M872.74513,332.40245V519.98119c-78.10154,0-107.19638-80.38224-53.58825-133.99062Z" transform="translate(-68.31943 -88.45478)"/><path class="cls-1" d="M753.27148,320.12518c26.81425,26.79412,31.72089,75.51612-26.79388,133.99062L580.25034,600.38369c0-107.19662,0-107.19662,25.4299-132.62652L726.4776,346.9193C701.597,322.039,686.32681,306.7485,668.71541,297.505c-20.31946-10.64836-43.71334-13.25452-88.46507-13.25452H473.05347V200.65141H580.25034c53.58825,0,53.58825,0,119.43289,65.86527l65.86552-65.86527H872.74513Z" transform="translate(-68.31943 -88.45478)"/><path class="cls-1" d="M872.7454,200.65414h-107.195L699.6838,266.52593c-65.841-65.87179-65.841-65.87179-119.43847-65.87179H473.04525L580.24533,93.45919H726.48C765.55045,93.45919,765.55045,93.45919,872.7454,200.65414Z" transform="translate(-68.31943 -88.45478)"/><polygon class="cls-1" points="658.158 443.804 658.158 511.929 590.032 511.929 658.158 443.804"/><path class="cls-1" d="M726.48,346.92471,605.67142,467.76405c-25.42609,25.42609-25.42609,25.42609-25.42609,132.621L473.04525,493.19014V284.26005H580.24533c44.7612,0,68.15526,2.60162,88.46021,13.239C686.32677,306.74071,701.59781,322.03741,726.48,346.92471Z" transform="translate(-68.31943 -88.45478)"/><polygon class="cls-1" points="511.931 511.929 404.734 511.929 351.106 565.537 297.497 511.929 297.497 404.732 404.734 404.732 511.931 511.929"/><path class="cls-1" d="M473.05347,704.87237l-96.7717,96.7517,96.7717,96.73144v101.76035L325.4011,852.484c-40.43513,40.43537-71.30154,71.32179-144.88317,71.32179-65.41765,0-107.19637-49.0477-107.19637-123.56619,0-65.397,65.41715-95.36722,107.19637-95.36722,50.83942,0,92.65939,53.58812,92.65939,95.36722-8.49-18.16129-34.8977-54.50423-72.66551-54.50423-18.20192.77357-54.52474,12.72513-54.52474,54.50423,0,34.531,30.8863,52.2444,54.52474,52.2444,20.42136,0,39.23419-18.79257,72.66551-52.2444l95.38785-95.36722L264.07636,600.38369h101.74L419.425,653.99207l53.62851-53.60838Z" transform="translate(-68.31943 -88.45478)"/><polygon class="cls-1" points="404.734 616.418 404.734 809.901 307.962 713.169 404.734 616.418"/><rect class="cls-1" x="297.49691" y="195.79569" width="107.23713" height="208.9366"/><path class="cls-1" d="M325.40973,852.47539,473.04525,1000.116H180.51438L73.31943,892.916V800.248c0,74.50793,41.785,123.559,107.195,123.559C254.10379,923.807,284.964,892.916,325.40973,852.47539Z" transform="translate(-68.31943 -88.45478)"/><path class="cls-1" d="M368.56517,704.87237l-95.38785,95.36722c0-41.7791-41.82-95.36722-92.65939-95.36722-41.77922,0-107.19637,29.97019-107.19637,95.36722V600.38369L180.51793,493.18707h83.55843V600.38369H180.51793c-21.64318,0-29.2375,28.19886-22.05028,43.44865,9.61,20.401,35.08112,27.0792,48.702,13.47846l56.90672-56.92711Z" transform="translate(-68.31943 -88.45478)"/><path class="cls-1" d="M264.07636,284.25048V493.18707H180.51793C247.72705,413.25282,264.07636,338.75483,264.07636,284.25048Z" transform="translate(-68.31943 -88.45478)"/><path class="cls-1" d="M264.08436,600.38509,207.172,657.30258c-13.6136,13.61361-39.10127,6.92226-48.70725-13.46992-7.17883-15.24539.40025-43.44757,22.04963-43.44757Z" transform="translate(-68.31943 -88.45478)"/><path class="cls-1" d="M200.50632,745.73713c37.7825,0,64.18355,36.35084,72.676,54.51087-33.43621,33.4362-52.253,52.22739-72.676,52.22739-23.625,0-54.51087-17.70333-54.51087-52.22739C145.99545,758.463,182.3155,746.50684,200.50632,745.73713Z" transform="translate(-68.31943 -88.45478)"/><polygon class="cls-1" points="2534.129 511.929 2534.129 595.508 2296.117 595.508 2296.117 404.732 2403.314 297.536 2403.314 511.929 2534.129 511.929"/><polygon class="cls-1" points="2403.314 190.34 2403.314 297.535 2296.119 190.34 2403.314 190.34"/><path class="cls-1" d="M2349.10584,937.30462c-.93649-1.83247-1.85309-3.68519-2.76921-5.49728L2179.13874,600.38369l-10.16023,20.07515-32.02659,63.50354-92.13,182.65161-6.65784,13.15262-6.637,13.15275-54.09725,107.1965h94.512l8.97868-17.85583,44.81337-88.7909.28482-.54977h106.21913l54.09725,107.1965h94.47123Zm-196.53729-97.01651,18.54789-36.77056,8.0223-15.88095,26.52894,52.65151Z" transform="translate(-68.31943 -88.45478)"/><path class="cls-1" d="M1906.12834,512.733l-19.52564-19.54589-66.21148-66.21148c83.94516-15.4941,109.131-78,110.71915-111.3907-1.81234-38.29758-34.6939-114.93348-151.704-114.93348H1565.01308V600.38369H1672.21V430.498h44.48679l62.70959,62.68908,73.13376,73.13389,34.06261,34.06273h107.19687ZM1672.21,346.9193V284.25048h107.19638c44.50717,0,44.50717,31.33441,44.50717,31.33441s0,31.33441-44.50717,31.33441Z" transform="translate(-68.31943 -88.45478)"/><polygon class="cls-1" points="1311.348 595.501 1311.348 642.751 1389.489 642.751 1389.489 726.321 1311.348 726.321 1311.348 804.461 1457.619 804.461 1457.619 911.661 1204.159 911.661 1204.159 511.931 1457.619 511.931 1457.619 595.501 1311.348 595.501"/><polygon class="cls-1" points="1165.087 112.197 1165.087 511.929 1091.505 511.929 984.308 404.732 911.622 332.067 911.622 511.929 804.426 511.929 804.426 112.197 911.622 219.393 1004.302 312.073 1057.89 365.661 1057.89 112.197 1165.087 112.197"/><polygon class="cls-1" points="511.931 595.508 511.931 642.743 590.032 642.743 590.032 726.322 511.931 726.322 511.931 804.465 658.158 804.465 658.158 911.661 404.734 911.661 404.734 511.929 658.158 511.929 658.158 595.508 511.931 595.508"/><polygon class="cls-1" points="404.734 112.197 404.734 195.796 297.497 195.796 297.497 511.929 195.757 511.929 195.757 195.796 88.56 195.796 88.56 112.197 404.734 112.197"/></svg>