<?xml version="1.0" encoding="utf-8"?>
<!-- Generator: Adobe Illustrator 24.1.1, SVG Export Plug-In . SVG Version: 6.00 Build 0)  -->
<svg version="1.1" xmlns="http://www.w3.org/2000/svg" xmlns:xlink="http://www.w3.org/1999/xlink" x="0px" y="0px"
	 viewBox="0 0 1729.7 2720" style="enable-background:new 0 0 1729.7 2720;" xml:space="preserve">
<style type="text/css">
	.st0{display:none;}
	.st1{display:inline;fill:#3B3128;stroke:#B0B0FF;stroke-width:3;stroke-linejoin:round;stroke-miterlimit:2;}
	.st2{display:inline;fill:#508694;stroke:#B0B0FF;stroke-width:3;stroke-linejoin:round;stroke-miterlimit:2;}
	.st3{fill:#7AEDE7;stroke:#7AEDE7;stroke-width:3;stroke-linejoin:round;stroke-miterlimit:2;}
	.st4{fill:#FFF9DC;stroke:#FFF9DC;stroke-width:3;stroke-linejoin:round;stroke-miterlimit:2;}
	.st5{fill:#CFFFF1;stroke:#CFFFF1;stroke-width:3;stroke-linejoin:round;stroke-miterlimit:2;}
	.st6{display:none;fill:#FFF9DC;stroke:#FFF9DC;stroke-width:3;stroke-linejoin:round;stroke-miterlimit:2;}
	.st7{fill:#B0B0FF;stroke:#B0B0FF;stroke-width:3;stroke-linejoin:round;stroke-miterlimit:2;}
	.st8{fill:none;}
	.st9{fill:#CFFFF1;stroke:#CC469A;stroke-width:7;stroke-linecap:round;stroke-linejoin:round;stroke-miterlimit:2;}
	.st10{fill:#CC469A;stroke:#CC469A;stroke-width:3;stroke-linejoin:round;stroke-miterlimit:2;}
	.st11{fill:#CC469A;stroke:#CC469A;stroke-width:3;stroke-linecap:round;stroke-linejoin:round;stroke-miterlimit:2;}
	.st12{fill:#FFCF4C;stroke:#FFCF4C;stroke-width:3;stroke-linejoin:round;stroke-miterlimit:2;}
	.st13{fill:#CFFFF1;stroke:#CC469A;stroke-width:5;stroke-miterlimit:2;}
</style>
<g id="Layer_2" class="st0">
	<rect x="-172" y="-106.5" class="st1" width="2077.3" height="2898.7"/>
	<line class="st2" x1="906.7" y1="1920.5" x2="1013.7" y2="1813.5"/>
</g>
<g id="Layer_1">
	<g id="XMLID_1_">
		<g id="XMLID_2_">
			<polygon class="st3" points="585,721.3 799.4,506.9 506.9,506.9 506.9,721.3 			"/>
			<polygon class="st4" points="653.2,906.7 653.2,1267.3 399.7,1013.9 508.5,905.1 			"/>
			<polygon class="st5" points="653.2,1013.9 526.5,1140.6 653.2,1267.3 			"/>
			<path class="st6" d="M510.1,1013.9V1121l-107.2-107.2C295.7,906.7,295.7,906.7,256.7,906.7h146.3L510.1,1013.9z"/>
			<path class="st3" d="M399.7,906.7h253.4l0,107.2C653.2,1013.9,515.8,1022.7,399.7,906.7z"/>
			<path class="st3" d="M799.5,1813.3l107.2,107.2c0,0,99.8-107,146.3-107.2H799.5z"/>
			<polygon class="st5" points="906.7,1920.5 692.3,1920.5 585.1,1813.3 799.5,1813.3 			"/>
			<path class="st4" d="M799.5,1600.8v212.5H506.9l-107.2-107.2v-105.3c0,0.8,0,1.6,0,2.4c0,0.9,0,1.8,0,2.7c0,0.8,0,1.7,0.1,2.5
				c0,0.5,0,1.1,0.1,1.6c0,0.7,0.1,1.3,0.1,2c0,0.7,0.1,1.3,0.1,2c0,0.8,0.1,1.7,0.2,2.5c0,0.2,0,0.3,0,0.5c0,0.8,0.1,1.5,0.2,2.3
				c0,0.1,0,0.2,0,0.3c0.1,0.7,0.1,1.3,0.2,2c0.1,1.6,0.3,3.1,0.5,4.7c0.1,0.8,0.2,1.5,0.3,2.2c0,0.1,0,0.1,0,0.2
				c0.1,0.7,0.2,1.5,0.3,2.2c0.1,0.7,0.2,1.4,0.3,2.1c0.3,1.7,0.5,3.3,0.8,4.9c0.1,0.6,0.2,1.2,0.3,1.8c0.3,1.6,0.6,3.2,1,4.8
				c0.1,0.5,0.2,1,0.3,1.5c0.1,0.6,0.3,1.2,0.4,1.8c0.1,0.6,0.3,1.2,0.4,1.8c0.2,1,0.5,2,0.8,3c0.2,0.7,0.4,1.3,0.5,2
				c0.2,0.6,0.3,1.2,0.5,1.8c0.2,0.6,0.3,1.2,0.5,1.8c0.2,0.6,0.4,1.2,0.6,1.8c0.1,0.5,0.3,0.9,0.4,1.4c0.3,0.9,0.6,1.9,0.9,2.8
				c0.2,0.5,0.3,1,0.5,1.5c0.2,0.6,0.4,1.1,0.6,1.7c0.2,0.5,0.4,1,0.6,1.5c0.2,0.6,0.5,1.3,0.7,1.9c0.3,0.6,0.5,1.3,0.8,1.9
				c0.3,0.8,0.7,1.6,1,2.4c0.3,0.7,0.6,1.3,0.9,2c0,0.1,0.1,0.1,0.1,0.2c0.3,0.7,0.6,1.3,0.9,2c0.3,0.7,0.6,1.4,1,2.1
				c0.3,0.7,0.7,1.4,1,2.1c0.3,0.6,0.6,1.2,0.9,1.8c0.1,0.1,0.2,0.3,0.2,0.5c0.3,0.5,0.5,1.1,0.8,1.6c0.4,0.8,0.9,1.6,1.3,2.4
				c0.3,0.6,0.6,1.1,0.9,1.7c0.4,0.7,0.7,1.3,1.1,1.9c0.3,0.5,0.6,1.1,0.9,1.6c0.3,0.5,0.6,1,0.9,1.5c0.4,0.5,0.7,1.1,1.1,1.6
				c0.7,1.1,1.4,2.1,2,3.1c0.3,0.5,0.7,1,1,1.5c1.7,2.4,3.4,4.8,5.2,7c0.4,0.5,0.8,1,1.1,1.4c0.8,1,1.6,2,2.4,2.9
				c0.5,0.5,0.9,1.1,1.4,1.6c0.4,0.5,0.8,0.9,1.2,1.4c0.3,0.3,0.5,0.6,0.8,0.9c0.5,0.5,1,1.1,1.5,1.6c0.5,0.5,1,1.1,1.5,1.6
				c3.3,3.4,6.7,6.7,10.3,9.8c0.5,0.5,1.1,0.9,1.6,1.4c0.5,0.4,0.9,0.8,1.4,1.2c0.9,0.8,1.9,1.5,2.8,2.3c0.4,0.4,0.9,0.7,1.3,1.1
				c2.6,2,5.3,4,8.1,5.8c0.6,0.4,1.2,0.8,1.8,1.2c0.6,0.4,1.2,0.8,1.8,1.2c0.6,0.4,1.2,0.8,1.8,1.2c0.6,0.4,1.2,0.8,1.8,1.1
				c0.6,0.4,1.2,0.7,1.8,1.1c0.6,0.4,1.2,0.7,1.8,1.1c0.6,0.4,1.2,0.7,1.9,1.1c1.9,1,3.7,2.1,5.6,3c0.6,0.3,1.3,0.7,1.9,1
				c5.7,2.9,11.6,5.5,17.6,7.8c0.7,0.3,1.3,0.5,2,0.8c1.3,0.5,2.6,1,4,1.4c0.7,0.3,1.4,0.5,2.1,0.7c0.7,0.2,1.4,0.5,2.1,0.7
				c0.7,0.2,1.4,0.5,2.1,0.7c0.7,0.2,1.4,0.4,2.1,0.6c0.7,0.2,1.4,0.4,2.1,0.6c0.8,0.2,1.6,0.5,2.4,0.7c1.3,0.4,2.6,0.7,3.9,1
				c0.7,0.2,1.4,0.4,2.1,0.5c0.1,0,0.2,0,0.3,0.1c1.3,0.3,2.6,0.6,3.9,0.9c0.7,0.2,1.4,0.3,2.2,0.5c0.7,0.2,1.4,0.3,2.1,0.4
				c0.7,0.1,1.4,0.3,2.1,0.4c1.4,0.3,2.8,0.5,4.3,0.8c0.7,0.1,1.4,0.2,2.1,0.4c1.4,0.2,2.9,0.5,4.3,0.7c2.9,0.4,5.7,0.8,8.6,1.1
				c3.6,0.4,7.2,0.7,10.8,0.9c9.3,0.6,18.6,0.6,27.8,0.2c10.1-0.5,20-1.7,29.8-3.4c4.9-0.9,9.7-1.9,14.4-3c0.8-0.2,1.6-0.4,2.4-0.6
				c3.1-0.8,6.3-1.7,9.3-2.6c0.8-0.2,1.5-0.5,2.3-0.7c1.5-0.5,3.1-1,4.6-1.5c0.8-0.3,1.5-0.5,2.3-0.8c1.5-0.5,3-1.1,4.5-1.6
				c2.2-0.8,4.4-1.7,6.6-2.6c1.4-0.6,2.9-1.2,4.3-1.9c2.8-1.3,5.6-2.6,8.3-4c1.4-0.7,2.7-1.4,4-2.1c12.6-6.9,23.9-15.1,33.4-24.6
				C799.5,1654.1,799.5,1600.8,799.5,1600.8z"/>
			<path class="st7" d="M685.9,1619l113.5-18.2c0,0,0,53.3-72.8,126.1L685.9,1619z"/>
			<path class="st4" d="M608.7,1401.8c0,31.4-13.6,56.3-34.4,72.8c-18.3,14.6-42.3,22.5-67.4,22.5c-53.6,0-107.2,38.6-107.2,103.7
				v-187.3h107.2v-107.2C561.5,1306.4,608.7,1342.8,608.7,1401.8z"/>
			<path class="st7" d="M653.2,1637.2l73.4,89.8c-86.3,86.3-326.9,69.8-326.9-126.1c0,76.2,72.7,103.7,107.2,103.7
				c33.4,0,83.9-10.5,110.8-78.3l-38,100.7L653.2,1637.2z"/>
			<path class="st7" d="M1121.1,2320.2l-87.7-87.7l-19.5-19.5h81.3C1085.4,2248.4,1087.9,2287.1,1121.1,2320.2z"/>
			<path class="st4" d="M1491.7,2213.1v107.2h-83c10.9-32,27.5-51.7,39.4-63.6L1491.7,2213.1z"/>
			<path class="st3" d="M1473.6,2651.7l-167.2-331.4h102.3C1388.6,2379.3,1388.2,2480.3,1473.6,2651.7z"/>
			<line class="st3" x1="1052.9" y1="1813.3" x2="799.5" y2="1813.3"/>
			<line class="st3" x1="1052.9" y1="1813.3" x2="799.5" y2="1813.3"/>
			<path class="st4" d="M1706.1,1920.5v292.5l-107.2,107.2v-321.6l-86.2-86.2c30.6-13.5,61-43.3,86.2-99.1L1706.1,1920.5z"/>
			<polygon class="st3" points="1598.9,2105.9 1491.7,2213.1 1491.7,1998.7 			"/>
			<path class="st5" d="M1598.9,1998.7h-107.2c-10.3,0-30.9,6.3-30.9,31.5c0,5.2,1.5,12.9,6,19.4l24.9,43.6v12.7l-43.6-24.9
				c-6.5-4.5-14.2-6-19.4-6c-25.2,0-31.5,20.6-31.5,30.9c0,10.3,6.3,30.9,31.5,30.9c5.2,0,12.9-1.5,19.4-6l43.6-24.9v12.7
				l-24.9,43.6c-4.5,6.5-6,14.2-6,19.4c0,25.2,20.6,31.5,30.9,31.5l-43.6,43.6c-11.9,11.9-28.5,31.6-39.4,63.6h-102.3
				c28.9,0,75.3-14.4,77.6-71.3c0-0.1,0-0.3,0-0.4c0.1-1.3,0.1-2.7,0.1-4.1c0-44.5-28.3-75.7-77.7-75.7c-23.6,0-53.1-31.5-53.1-63
				c0-31.5,29.5-63,53.1-63c53.1,0,77.7-36.6,77.7-75.7c0-25.2-9-46.1-25.8-59.5l-23,23l-136.1,136.1v-146.3l107.2-107.2l73.1,73.1
				c28.2,24.4,80.9,49.1,133.2,26L1598.9,1998.7z"/>
			<path class="st3" d="M1452.7,1813.3h146.2c-25.2,55.8-55.6,85.6-86.2,99.1c-52.3,23.1-105-1.6-133.2-26l-73.1-73.1H1452.7z"/>
			<path class="st3" d="M1306.4,2507.5v52.7h-26.6l18.5-36.8C1301.6,2518.3,1304.3,2512.9,1306.4,2507.5z"/>
			<path class="st4" d="M1306.4,2320.2l-10.2,20.1c-16.4-12.4-46.9-20.1-67.6-20.1H1306.4z"/>
			<path class="st3" d="M1306.4,2612.8L1199.2,2720l9-17.9l44.8-88.8c0.7-0.2,1.5-0.3,2.2-0.5H1306.4z"/>
			<path class="st5" d="M1143.1,2584.3c0,0-79.4-1.8-129.2-51.6l-107.2-107.2l-41,41l-66.2-66.2v-80.1l107.2-107.2l73.1,73.1
				l-34.1,34.1l33.1,33.1l-15.6,15.6c-7.8,7.8-7.6,23.6,0.5,31.7c8,8,24.1,8,32.1,0c8.5-8,8.5-23.9,0-31.7l-17-15.6l35-33.1h107.2
				c-33.1-33.1-35.6-71.9-25.9-107.2h104.1l93.5,93.5l13.7,13.7h-77.7C1092.6,2320.2,1056.6,2418.9,1143.1,2584.3z"/>
			<path class="st4" d="M1264.2,2403.8l-92.1,182.7C1092.5,2388.5,1220.4,2379.1,1264.2,2403.8z"/>
			<path class="st3" d="M1199.2,2066.8v146.3h-104.1c16-58.2,65-107.2,65-107.2L1199.2,2066.8z"/>
			<path class="st4" d="M1158.8,2612.8l-54.1,107.2H984.9C964.9,2629.7,1059.5,2586.5,1158.8,2612.8z"/>
			<path class="st4" d="M1013.9,2532.7c49.9,49.8,129.2,51.6,129.2,51.6c-53.9,0-236.4-26.4-236.4,135.7l-107.2-107.2v-80.1
				l66.2-66.2l41-41L1013.9,2532.7z M931.9,2532.7l-25.2-25.2l-25.2,25.2l25.2,25.2L931.9,2532.7z"/>
			<polygon class="st3" points="1013.9,2320.2 978.8,2353.4 945.7,2320.2 979.8,2286.2 			"/>
			<path class="st3" d="M951.2,2035.4c0,0,0,31.3-44.5,31.3v-62.7C951.2,2004.1,951.2,2035.4,951.2,2035.4z"/>
			<polygon class="st3" points="906.7,2507.5 931.9,2532.7 906.7,2557.9 881.5,2532.7 			"/>
			<rect x="799.5" y="2004.1" class="st5" width="107.2" height="62.7"/>
			<polygon class="st3" points="906.7,2213.1 799.5,2320.2 799.5,2150.4 844,2150.4 			"/>
			<polygon class="st3" points="1092,1413.6 1092,1628 984.8,1628 984.8,1544.4 906.7,1544.4 906.7,1497.2 1052.9,1497.2 
				1052.9,1413.6 			"/>
			<path class="st4" d="M935.7,1243.7c-48.1,48.1-79.9,62.7-136.3,62.7l107.2,107.2H1092v-253.5
				C1019.3,1160.1,984.8,1194.6,935.7,1243.7z M1008.4,1369.1l-62.7-62.7l62.7-62.7l62.7,62.7L1008.4,1369.1z"/>
			<path class="st5" d="M984.8,906.7c18.4,46.1,32.3,138.1-59,138.1c31.7,0,62.4-70-19.1-138.1l-107.2,107.2
				c20,0,81.8,65.9,81.8,146.3c0,88.1-58.1,146.3-81.8,146.3c56.3,0,88.2-14.6,136.3-62.7c49.1-49,83.6-83.6,156.3-83.6v-146.3
				L984.8,906.7z M879.9,1003.7c0-17.3,10.8-25.3,17.6-27.7c13.8-4.8,30.5,5.6,21.4,16.4c-18.8,22.1-9.1,50.9,5.8,52.3
				C897.5,1043.2,879.9,1020.8,879.9,1003.7z"/>
			<path class="st5" d="M906.7,1413.6H799.5v187.3l-113.6-18.2l40.7-107.9l-73.4,89.8l-73.4-89.8l-5.5-0.1l0,0
				c2.6-2.1,5.1-4.3,7.4-6.6c0.6-0.6,1.2-1.2,1.8-1.8c15.5-16.1,25.2-38,25.2-64.5c0-59-47.2-95.4-101.8-95.4h72.7l107.2,107.2h73.6
				v-107.2h39.1L906.7,1413.6z"/>
			<path class="st8" d="M881.2,1160.1c0,88.1-58.1,146.3-81.8,146.3h-39.1v-292.5h39.1C819.5,1013.9,881.2,1079.7,881.2,1160.1z"/>
			<path class="st5" d="M579.8,1474.7l40.7,108l-113.6,18.2l113.6,18.2l-2.5,6.8c-0.1,0.1-0.1,0.3-0.2,0.5
				c-26.9,67.7-77.5,78.3-110.8,78.3c-34.5,0-107.2-27.5-107.2-103.7c0-65.1,53.6-103.7,107.2-103.7c25.1,0,49.1-8,67.4-22.5
				L579.8,1474.7z"/>
			<polygon class="st3" points="579.6,1306.4 506.9,1306.4 506.9,1233.7 			"/>
			<path class="st5" d="M745.8,292.5c-53.6,53.6-24.5,134,53.6,134v80.4H653.2v-68.1L585,506.9h-78.1l146.2-146.3
				c58.5-58.5,53.6-107.2,26.8-134l119.5-119.5v131.8L745.8,292.5z"/>
			<path class="st3" d="M799.4,238.9v187.6c-78.1,0-107.2-80.4-53.6-134L799.4,238.9z"/>
			<path class="st4" d="M799.4,107.2H692.2l-65.9,65.9c-65.8-65.9-65.8-65.9-119.4-65.9H399.7L506.9,0h146.2
				C692.2,0,692.2,0,799.4,107.2z"/>
			<polygon class="st4" points="653.2,438.8 653.2,506.9 585,506.9 			"/>
			<path class="st4" d="M653.2,253.5L532.3,374.3c-25.4,25.4-25.4,25.4-25.4,132.6L399.7,399.7V190.8h107.2
				c44.8,0,68.2,2.6,88.5,13.2C613,213.3,628.3,228.6,653.2,253.5z"/>
			<polygon class="st5" points="506.9,506.9 399.7,506.9 346.1,560.5 292.5,506.9 292.5,399.7 399.7,399.7 			"/>
			<polygon class="st5" points="399.7,611.4 399.7,804.9 303,708.2 			"/>
			<rect x="292.5" y="190.8" class="st3" width="107.2" height="208.9"/>
			<path class="st4" d="M252.1,759l147.6,147.6H107.2L0,799.5v-92.7c0,74.5,41.8,123.6,107.2,123.6
				C180.8,830.3,211.6,799.5,252.1,759z"/>
			<path class="st4" d="M295.2,611.4l-95.4,95.4c0-41.8-41.8-95.4-92.7-95.4C65.4,611.4,0,641.4,0,706.8V506.9l107.2-107.2h83.6
				v107.2h-83.6c-21.6,0-29.2,28.2-22.1,43.4c9.6,20.4,35.1,27.1,48.7,13.5l56.9-56.9L295.2,611.4z"/>
			<path class="st3" d="M190.8,190.8v208.9h-83.6C174.4,319.8,190.8,245.3,190.8,190.8z"/>
			<path class="st5" d="M127.2,652.3c37.8,0,64.2,36.4,72.7,54.5c-33.4,33.4-52.3,52.2-72.7,52.2c-23.6,0-54.5-17.7-54.5-52.2
				C72.7,665,109,653,127.2,652.3z"/>
			<polyline class="st9" points="1397.2,2105.9 1332.9,2105.9 1308,2081 			"/>
			<path class="st10" d="M1491.7,2213L1491.7,2213c-10.3,0-30.9-6.3-30.9-31.5c0-5.2,1.5-12.9,6-19.4l24.9-43.6V2213z"/>
			<path class="st10" d="M1491.7,1998.7v94.5l-24.9-43.6c-4.5-6.5-6-14.2-6-19.4C1460.8,2004.9,1481.4,1998.7,1491.7,1998.7z"/>
			<path class="st11" d="M1491.7,2105.9l-43.6,24.9c-6.5,4.5-14.2,6-19.4,6c-25.2,0-31.5-20.6-31.5-30.9c0-10.3,6.3-30.9,31.5-30.9
				c5.2,0,12.9,1.5,19.4,6L1491.7,2105.9z"/>
			<path class="st10" d="M995.9,2369c8.5,7.8,8.5,23.6,0,31.7c-8,8-24.1,8-32.1,0c-8-8-8.3-23.9-0.5-31.7l15.6-15.6L995.9,2369z"/>
			<polygon class="st10" points="865.7,2466.5 799.5,2532.7 799.5,2400.3 			"/>
			<polygon class="st10" points="1008.4,1243.7 1071.1,1306.4 1008.4,1369.1 945.7,1306.4 			"/>
			<path class="st10" d="M190.8,506.9l-56.9,56.9c-13.6,13.6-39.1,6.9-48.7-13.5c-7.2-15.2,0.4-43.4,22-43.4H190.8z"/>
			<path class="st7" d="M1384.1,2244.5c0,1.3,0,2.7-0.1,4.1c0,0.1,0,0.2,0,0.4c-2.3,56.9-48.7,71.3-77.6,71.3l-13.7-13.7l-93.5-93.5
				v-146.3l136.1-136.1l23-23c16.8,13.4,25.8,34.3,25.8,59.5c0,39.1-24.6,75.7-77.7,75.7c-23.6,0-53.1,31.5-53.1,63
				c0,31.5,29.5,63,53.1,63C1355.8,2168.8,1384.1,2200,1384.1,2244.5z"/>
			<path class="st7" d="M1296.2,2340.3l-32,63.5c-43.8-24.7-171.7-15.4-92.1,182.7l-6.7,13.2l-6.6,13.2
				c-99.3-26.3-193.9,17-173.9,107.2h-78.2c0-162,182.5-135.7,236.4-135.7c-86.4-165.4-50.5-264.1,85.6-264.1
				C1249.3,2320.2,1279.8,2327.9,1296.2,2340.3z"/>
			<path class="st7" d="M984.8,906.7c18.4,46,32.3,138.1-59,138.1c31.7,0,62.4-70-19.1-138.1H984.8z"/>
			<path class="st7" d="M897.5,976c13.8-4.8,30.5,5.5,21.4,16.4c-18.8,22.1-9.1,50.9,5.8,52.3c-27.2-1.5-44.7-23.9-44.7-41
				C879.9,986.4,890.8,978.4,897.5,976z"/>
			<path class="st7" d="M679.9,226.7c26.8,26.8,31.7,75.5-26.8,134L506.9,506.9c0-107.2,0-107.2,25.4-132.6l120.8-120.8
				c-24.9-24.9-40.2-40.2-57.8-49.4c-20.3-10.6-43.7-13.3-88.5-13.3H399.7v-83.6h107.2c53.6,0,53.6,0,119.4,65.9l65.9-65.9h107.2
				L679.9,226.7z"/>
			<path class="st7" d="M399.7,611.4L303,708.2l96.8,96.7v101.8L252.1,759c-40.4,40.4-71.3,71.3-144.9,71.3
				C41.8,830.3,0,781.3,0,706.8c0-65.4,65.4-95.4,107.2-95.4c50.8,0,92.7,53.6,92.7,95.4c-8.5-18.2-34.9-54.5-72.7-54.5
				C109,653,72.7,665,72.7,706.8c0,34.5,30.9,52.2,54.5,52.2c20.4,0,39.2-18.8,72.7-52.2l95.4-95.4L190.8,506.9h101.7l53.6,53.6
				l53.6-53.6V611.4z"/>
			<polygon class="st12" points="1729.7,2320.2 1729.7,2403.8 1491.7,2403.8 1491.7,2213.1 1598.9,2105.9 1598.9,2320.2 			"/>
			<polygon class="st12" points="1598.9,1998.7 1598.9,2105.9 1491.7,1998.7 			"/>
			<path class="st12" d="M1476.4,2657.2c-0.9-1.8-1.9-3.7-2.8-5.5l-167.2-331.4l-10.2,20.1l-32,63.5l-92.1,182.7l-6.7,13.2
				l-6.6,13.2l-54.1,107.2h94.5l9-17.9l44.8-88.8l0.3-0.5h106.2l54.1,107.2h94.5L1476.4,2657.2z M1279.8,2560.2l18.5-36.8l8-15.9
				l26.5,52.7H1279.8z"/>
			<path class="st12" d="M1033.4,2232.6l-19.5-19.5l-66.2-66.2c83.9-15.5,110.7-74.6,110.7-111.4c0-41.3-34.7-114.9-151.7-114.9
				H692.3v399.7h107.2v-169.9H844l62.7,62.7l73.1,73.1l34.1,34.1h107.2L1033.4,2232.6z M799.5,2066.8v-62.7h107.2
				c44.5,0,44.5,31.3,44.5,31.3s0,31.3-44.5,31.3H799.5z"/>
			<polygon class="st12" points="760.4,1013.9 760.4,1413.6 686.8,1413.6 579.6,1306.4 506.9,1233.7 506.9,1413.6 399.7,1413.6 
				399.7,1013.9 506.9,1121 599.6,1213.7 653.2,1267.3 653.2,1013.9 			"/>
			<polygon class="st12" points="506.9,590.5 506.9,637.7 585,637.7 585,721.3 506.9,721.3 506.9,799.5 653.2,799.5 653.2,906.7 
				399.7,906.7 399.7,506.9 653.2,506.9 653.2,590.5 			"/>
			<polygon class="st12" points="399.7,107.2 399.7,190.8 292.5,190.8 292.5,506.9 190.8,506.9 190.8,190.8 83.6,190.8 83.6,107.2 
							"/>
			<path class="st10" d="M799.5,1600.8L685.9,1619l40.7,107.9l-73.4-89.8l-73.4,89.8l38-100.7c0.1-0.1,0.1-0.3,0.2-0.5
				c0.9-2.2,1.7-4.5,2.5-6.8l-113.6-18.2l113.6-18.2l-40.7-108l73.4,89.8l73.4-89.8l-40.7,108L799.5,1600.8z"/>
			<line class="st9" x1="1332.9" y1="2105.9" x2="1308" y2="2130.8"/>
			<polygon class="st12" points="906.7,1497.2 906.7,1544.4 984.8,1544.4 984.8,1628 906.7,1628 906.7,1706.1 1052.9,1706.1 
				1052.9,1813.3 799.5,1813.3 799.5,1413.6 1052.9,1413.6 1052.9,1497.2 			"/>
			<path class="st3" d="M510.1,1121"/>
		</g>
	</g>
	<line class="st13" x1="1332.9" y1="2105.9" x2="1307.7" y2="2131.1"/>
</g>
</svg>
