<svg width="510" height="510" viewBox="0 0 510 510" fill="none" xmlns="http://www.w3.org/2000/svg">
<path d="M124.137 363.541L173.406 295.965M124.137 363.541L343.949 292.523M124.137 363.541L40.2675 336.136M124.137 363.541L123.991 451.775M173.406 295.965L260.226 176.885M173.406 295.965L124.276 279.912M260.226 176.885L322.945 90.8602M260.226 176.885L150.105 140.902M343.949 292.523L445.254 259.794M343.949 292.523L343.778 395.846M203.717 337.83L203.631 389.516M259.989 319.65L259.842 407.884M124.375 220.776L208.245 248.181" stroke="white" stroke-width="12" stroke-linecap="round" stroke-dasharray="200 75"/>
<path d="M133.799 145.356C126.722 150.48 116.831 148.897 111.707 141.82C106.583 134.743 108.167 124.852 115.244 119.728C122.321 114.604 132.211 116.188 137.335 123.265C142.459 130.342 140.876 140.232 133.799 145.356Z" stroke="white" stroke-width="10"/>
<path d="M489.078 261.446C482.001 266.57 472.11 264.987 466.986 257.91C461.863 250.833 463.446 240.942 470.523 235.818C477.6 230.694 487.491 232.278 492.614 239.355C497.738 246.432 496.155 256.322 489.078 261.446Z" stroke="white" stroke-width="10"/>
<path d="M355.98 452.233C348.903 457.357 339.012 455.773 333.888 448.696C328.765 441.619 330.348 431.729 337.425 426.605C344.502 421.481 354.393 423.064 359.517 430.141C364.64 437.218 363.057 447.109 355.98 452.233Z" stroke="white" stroke-width="10"/>
<path d="M353.61 74.3385C346.533 79.4623 336.643 77.8789 331.519 70.8019C326.395 63.7249 327.978 53.8342 335.055 48.7104C342.132 43.5866 352.023 45.17 357.147 52.247C362.271 59.3239 360.687 69.2147 353.61 74.3385Z" stroke="white" stroke-width="10"/>
<path d="M173.406 295.965C187.116 300.595 198.968 297.537 212.996 309.804C227.024 322.071 250.771 325.046 259.989 319.65C286.888 303.903 244.586 281.869 252.865 262.761M260.226 176.885C334.659 142.079 379.036 192.829 374.703 219.899C371.298 241.169 359.121 270.157 322.302 262.624C293.454 256.722 262.225 241.16 252.865 262.761M343.949 292.523L252.865 262.761M203.717 337.83L205.981 293.006L208.245 248.181L252.865 262.761" stroke="white" stroke-width="5"/>
</svg>
