<svg id="Layer_1" data-name="Layer 1" xmlns="http://www.w3.org/2000/svg" viewBox="0 0 583.838 102.29"><defs><style>.cls-1{fill:#ef5555;}.cls-2{fill:#fff;}</style></defs><path class="cls-1" d="M463.7,102.619l-1.016-26.8L477.512,95.68l6.3-7.177L466.337,70.8,489.3,72.712V62.185l-22.555,2.153,17.069-18.422-6.3-7.178L462.679,59.553,463.7,31.8h-8.737l1.219,27.753L441.14,38.26l-6.1,7.417,17.069,18.9-22.961-2.393V72.712l22.961-.478L435.044,88.742l6.1,7.417,15.646-20.1-1.828,26.557Z" transform="translate(-2.367 -20.856)"/><path class="cls-1" d="M524.454,82.032a152.414,152.414,0,0,1,17.81-18.442l20.08,21.321h8.046V43.434a129.73,129.73,0,0,1,15.816-7.952l-3.37-12.34s-5.02,2.536-12.446,7.2V23.073h-7.565V35.345A203.129,203.129,0,0,0,543.365,50.5L525,30.888h-8.045V82.032Zm0-37.432,11.828,12.614A132.162,132.162,0,0,0,524.454,70.72Zm38.371,3.5V71.2l-13-13.849C554.3,53.787,558.768,50.77,562.825,48.1Z" transform="translate(-2.367 -20.856)"/><path class="cls-1" d="M363.757,40.543l19.684,25.1L363.757,90.5v19.2h7.225V93h34.355V109.7h7V90.667l-19.758-25.02,19.758-25.27V21.341h-7V38.049H370.908V21.341h-7.151Zm34.576,5.57-10.321,13.05-10.321-13.05ZM388.012,71.881l10.321,13.051H377.617Z" transform="translate(-2.367 -20.856)"/><path class="cls-1" d="M302.02,109.1c20.032,4.55,42.316-7.815,42.316-38.875,0-23.147-13.355-39.864-34.063-39.864-20.032,0-31.736,14.937-31.736,34.127,0,17.211,9.153,29.18,23.258,29.18,24.609,0,24.159-28.884,24.159-28.884l-9.979-3.857s1.651,22.949-13.13,22.949c-9.828,0-14.03-8.7-14.03-18.7,0-13.453,7.353-25.026,21.458-25.026,14.18,0,23.784,13.057,23.784,30.071,0,16.915-9.6,29.972-23.934,29.972a23.342,23.342,0,0,1-8.1-1.583Z" transform="translate(-2.367 -20.856)"/><path class="cls-1" d="M156.129,51.291,138.8,31.958a20.963,20.963,0,0,0-7.8-1.637l26.309,29.767A34.713,34.713,0,0,0,156.129,51.291Zm1.088,10.433-27.579-31.1a16.974,16.974,0,0,0-4.99.409L156.673,67.35A21.605,21.605,0,0,0,157.217,61.724Zm-1.088,7.365-33.2-37.438a14.149,14.149,0,0,0-3.72,1.637l35.472,40.1C155.312,72.056,155.584,70.521,156.129,69.089Zm-6.714-29.868a24.178,24.178,0,0,0-9.526-7.058l15.967,18A29.408,29.408,0,0,0,149.415,39.221Zm4.355,36.108L117.3,34.208l-2.631,2.251L151.774,78.4A8.812,8.812,0,0,0,153.77,75.329ZM149.6,81.671l1-1.023-37.74-42.655-.908,1.228-1.088,1.022L148.689,82.8Zm-3.448,3.069L109.044,42.8l-1.179,1.841,36.742,41.325A5.225,5.225,0,0,0,146.149,84.74ZM105.415,50.472l34.112,38.257,1.633-.92L106.323,48.427A13.515,13.515,0,0,0,105.415,50.472Zm29.757,39.587L104.327,55.178l-.091,1.739,29.575,33.551ZM104.327,65.2l22.136,25.062,1.088.2-23.5-26.391Zm7.348,16.571L113.4,83.41l-3.629-3.989A9.2,9.2,0,0,0,111.675,81.773Z" transform="translate(-2.367 -20.856)"/><path class="cls-1" d="M38.85,101.082q9.979,0,15.56-5.677t5.579-15.7q0-7.57-3.039-11.56a14.5,14.5,0,0,0-8.029-5.319v-.512A11.423,11.423,0,0,0,56,56.89a20.662,20.662,0,0,0,2.631-10.945q0-9.411-5.625-13.657t-16.33-4.245H16.441v73.039ZM28.689,56.788V40.216h7.439q4.989,0,7.077,1.944T45.292,48.5q0,4.3-1.951,6.291t-6.759,1.995Zm0,32.121V69.37h8.437q5.261,0,7.213,2.405t1.95,7.109a12.447,12.447,0,0,1-1.905,7.365q-1.905,2.663-6.8,2.66Z" transform="translate(-2.367 -20.856)"/><path class="cls-1" d="M234.352,41.483a3.817,3.817,0,0,1,2.5.828q2.43,2.111,2.43,7.682V89.759q-.947.753-2.16,1.807-4.794,4.293-9.247,4.293-9.111,0-13.026-5.724-3.577-5.044-3.577-15.816l.067-28.091V41.182q0-10.468-7.356-10.469a12.473,12.473,0,0,0-5.2,1.13q-5.13,2.185-13.364,10.393a11.306,11.306,0,0,1,4.792-1.13,6.827,6.827,0,0,1,6.817,4.67q1.013,2.335,1.012,8.887v25.38q0,11.749,3.51,18.527,3.913,7.533,11.609,7.532,11.4,0,26.12-12.427.066,2.259.27,4.443.876,7.683,7.086,7.682a16.153,16.153,0,0,0,11.542-4.895q2.024-1.958,3.813-3.879a11.253,11.253,0,0,1,4.016-2.824,14.7,14.7,0,0,1-5.8,1.2q-4.251,0-6.074-2.259t-1.822-6.778V38.546q0-7.23-5.062-7.23t-15.929,10.92h0a6.944,6.944,0,0,1,3.038-.753Z" transform="translate(-2.367 -20.856)"/><path class="cls-2" d="M66.537,77.729c0-19.128-17.167-20.151-17.167-20.151S64.7,55.737,64.7,40.291c0-12.582-10.006-19.435-32.038-19.435H2.367v79.48H34.5C56.53,100.336,66.537,92.766,66.537,77.729ZM14.3,55.226V29.551h18.36c11.016,0,19.462,2.557,19.462,12.786S43.678,55.226,32.662,55.226Zm0,8.694H34.5c11.016,0,19.462,2.557,19.462,13.809S45.514,91.641,34.5,91.641H14.3Z" transform="translate(-2.367 -20.856)"/><path class="cls-2" d="M145.95,86.731,146.5,62.9c.275-11.661-7.16-20.765-22.4-20.765-20.471,0-25.428,16.878-25.428,16.878l11.383,3.683s2.479-11.457,14.413-11.457c11.842,0,10.924,11.866,10.924,11.866-27.357,3.478-34.884,16.673-34.884,26.186,0,7.058,4.773,12.48,12.3,12.48,15.239,0,22.583-22.913,22.583-22.913v9.717c0,10.025,5.692,13.2,11.383,13.2,8.538,0,11.935-5.115,11.935-5.115l-2.2-9.1s-2.019,5.115-6.518,5.115C147.052,92.664,145.858,90.311,145.95,86.731Zm-33.783,0c0-5.012,2.754-14.321,23.226-20.151v3.58c.184,4.3-8.629,22.5-18.36,22.5C114,92.664,112.167,90.618,112.167,86.731Z" transform="translate(-2.367 -20.856)"/><path class="cls-2" d="M200.026,43.564H189.01V78.752c0,14.321,6.242,23.016,21.389,23.016,19.462,0,20.747-18.31,20.747-18.31l4.682,16.878h5.325V43.564H230.137V77.32c0,3.478-1.837,15.344-15.7,15.344-9.18,0-14.412-4.6-14.412-14.116Z" transform="translate(-2.367 -20.856)"/><path class="cls-2" d="M279.713,43.564v79.582h11.016V89.7A19.274,19.274,0,0,0,309,101.768c15.239,0,25.521-12.48,25.521-29.869S324.237,42.132,309,42.132c-16.157,0-19.554,14.935-19.554,14.935l-3.488-13.5Zm25.8,7.672c10.833,0,17.259,8.388,17.259,20.663s-6.426,20.765-17.259,20.765c-11.016,0-17.075-9.513-17.075-20.765S294.493,51.236,305.509,51.236Z" transform="translate(-2.367 -20.856)"/><path class="cls-2" d="M370.326,100.336h11.016V20.856a57.9,57.9,0,0,1-11.016,1.125Z" transform="translate(-2.367 -20.856)"/><path class="cls-2" d="M463.506,86.731l.551-23.834c.275-11.661-7.161-20.765-22.4-20.765-20.472,0-25.429,16.878-25.429,16.878l11.383,3.683s2.479-11.457,14.413-11.457c11.843,0,10.925,11.866,10.925,11.866-27.357,3.478-34.885,16.673-34.885,26.186,0,7.058,4.774,12.48,12.3,12.48,15.24,0,22.584-22.913,22.584-22.913v9.717c0,10.025,5.691,13.2,11.383,13.2,8.538,0,11.934-5.115,11.934-5.115l-2.2-9.1s-2.02,5.115-6.518,5.115C464.607,92.664,463.414,90.311,463.506,86.731Zm-33.783,0c0-5.012,2.754-14.321,23.226-20.151v3.58c.183,4.3-8.63,22.5-18.361,22.5C431.559,92.664,429.723,90.618,429.723,86.731Z" transform="translate(-2.367 -20.856)"/><path class="cls-2" d="M547.692,100.336h11.016V65.148c0-14.321-6.242-23.016-21.389-23.016-19.462,0-20.748,18.31-20.748,18.31L511.89,43.564h-5.325v56.772h11.016V66.58c0-3.478,1.836-15.344,15.7-15.344,9.18,0,14.413,4.6,14.413,14.116Z" transform="translate(-2.367 -20.856)"/></svg>